<svg aria-hidden="true" style="width:0;height:0;position:absolute;overflow:hidden" xmlns="http://www.w3.org/2000/svg"><defs><symbol id="icon-smile-green" viewBox="0 0 35 32"><path fill="#fff" style="fill:var(--color1,#fff)" d="M12.353 17.514c1.267.696 3.265-.337 4.462-2.306s1.142-4.129-.125-4.825c-1.267-.696-3.265.337-4.462 2.306s-1.142 4.13.125 4.825z"/><path style="fill:var(--color2,#000)" d="M16.593 10.543c1.152.633 1.178 2.727.055 4.573s-3.045 2.871-4.197 2.238c-1.152-.633-1.178-2.727-.055-4.573s3.046-2.871 4.197-2.238zm.194-.319c-1.359-.747-3.476.316-4.727 2.373s-1.163 4.331.196 5.077c1.359.747 3.476-.316 4.727-2.373s1.165-4.33-.196-5.077z"/><path fill="#fff" style="fill:var(--color1,#fff)" d="M20.081 21.754c1.267.696 3.265-.337 4.462-2.306s1.142-4.129-.125-4.825c-1.267-.696-3.265.337-4.462 2.306s-1.142 4.129.125 4.825z"/><path style="fill:var(--color2,#000)" d="M24.321 14.783c1.152.633 1.178 2.727.055 4.573s-3.045 2.871-4.197 2.238c-1.152-.633-1.178-2.727-.055-4.573s3.046-2.871 4.197-2.238zm.194-.319c-1.36-.747-3.476.316-4.727 2.373s-1.163 4.331.196 5.077c1.359.747 3.476-.316 4.727-2.373s1.165-4.33-.196-5.077zm-11.062 1.241c.711.39 1.823-.175 2.484-1.262s.621-2.285-.089-2.676c-.711-.39-1.823.175-2.484 1.262s-.621 2.285.089 2.676z"/><path style="fill:var(--color2,#000)" d="M15.816 11.82c.679.373.708 1.535.066 2.592s-1.717 1.613-2.396 1.24c-.679-.373-.708-1.535-.066-2.592s1.718-1.612 2.396-1.24zm.064-.106c-.742-.407-1.894.168-2.573 1.285s-.629 2.352.113 2.76c.742.408 1.894-.168 2.573-1.285s.629-2.352-.113-2.76zm5.301 8.231c.711.39 1.823-.175 2.484-1.262s.621-2.285-.089-2.676c-.711-.39-1.823.175-2.484 1.262s-.621 2.285.089 2.676z"/><path style="fill:var(--color2,#000)" d="M23.544 16.06c.679.373.708 1.535.066 2.592s-1.717 1.613-2.396 1.24c-.679-.373-.708-1.535-.066-2.592s1.718-1.612 2.396-1.24zm.064-.106c-.742-.407-1.894.168-2.573 1.285s-.629 2.352.113 2.76c.742.407 1.894-.168 2.573-1.285s.629-2.352-.113-2.76z"/><path fill="#fff" style="fill:var(--color1,#fff)" d="M14.978 14.2c.428.235 1.035-.004 1.357-.533s.236-1.148-.192-1.383c-.428-.235-1.035.004-1.357.533s-.236 1.148.192 1.383zm7.728 4.24c.428.235 1.035-.004 1.357-.533s.236-1.148-.192-1.383c-.428-.235-1.035.004-1.357.533s-.236 1.148.192 1.383z"/><path style="fill:var(--color2,#000)" d="M15.614 7.608c1.426.096 2.721.811 3.522 1.936.279.391.956.027.676-.366-.967-1.359-2.477-2.193-4.201-2.309-.497-.034-.494.706.003.739zm8.064 4.424c1.426.096 2.721.81 3.522 1.936.279.391.956.027.676-.366-.967-1.359-2.477-2.193-4.201-2.309-.498-.034-.494.706.003.739z"/><path fill="none" stroke="#000" style="stroke:var(--color2,#000)" stroke-miterlimit="10" stroke-width=".464" d="M13.398 24.401c-5.784-3.173-8.851-8.414-6.851-11.706M27.491 24.186c-2 3.292-8.31 3.388-14.093.215M5.153 12.286l2.917.607m18.622 10.642 1.663 1.196"/></symbol><symbol id="icon-smile-orang" viewBox="0 0 35 32"><path fill="#fff" style="fill:var(--color1,#fff)" d="M13.369 21.857c1.491-.477 2.034-2.742 1.213-5.059s-2.695-3.809-4.185-3.332c-1.491.477-2.034 2.742-1.213 5.059s2.695 3.809 4.185 3.332z"/><path style="fill:var(--color2,#000)" d="M10.464 13.653c1.356-.434 3.151 1.035 3.921 3.208s.274 4.374-1.082 4.808c-1.356.434-3.151-1.035-3.921-3.208s-.273-4.375 1.082-4.808zm-.133-.375c-1.6.512-2.201 2.889-1.344 5.31s2.85 3.969 4.449 3.457c1.6-.512 2.201-2.889 1.344-5.31s-2.848-3.969-4.449-3.457z"/><path fill="#fff" style="fill:var(--color1,#fff)" d="M22.462 18.953c1.491-.477 2.034-2.742 1.213-5.059s-2.694-3.809-4.185-3.332c-1.491.477-2.034 2.742-1.213 5.059s2.695 3.809 4.185 3.333z"/><path style="fill:var(--color2,#000)" d="M19.557 10.75c1.356-.434 3.151 1.035 3.921 3.208s.274 4.374-1.082 4.808c-1.356.434-3.151-1.035-3.921-3.208s-.273-4.375 1.082-4.808zm-.133-.376c-1.6.512-2.201 2.889-1.344 5.31s2.85 3.969 4.449 3.457c1.6-.512 2.201-2.889 1.344-5.31s-2.848-3.969-4.449-3.457zm-6.809 9.354c.836-.267 1.147-1.522.693-2.801s-1.499-2.1-2.335-1.833c-.836.268-1.147 1.522-.693 2.801s1.499 2.1 2.335 1.833z"/><path style="fill:var(--color2,#000)" d="M10.996 15.156c.799-.256 1.806.547 2.247 1.791s.149 2.462-.65 2.718c-.799.256-1.806-.547-2.247-1.791s-.148-2.462.65-2.718zm-.044-.125c-.873.279-1.202 1.571-.737 2.885s1.55 2.154 2.423 1.874c.873-.279 1.203-1.571.737-2.885s-1.55-2.154-2.423-1.874zm10.757 1.793c.836-.267 1.147-1.522.693-2.801s-1.499-2.1-2.335-1.833c-.836.267-1.147 1.522-.693 2.801s1.499 2.1 2.335 1.833z"/><path style="fill:var(--color2,#000)" d="M20.089 12.253c.799-.256 1.806.547 2.247 1.791s.149 2.462-.65 2.718c-.799.256-1.806-.547-2.247-1.791s-.148-2.462.65-2.718zm-.044-.126c-.873.279-1.202 1.571-.737 2.885s1.55 2.154 2.423 1.874c.873-.279 1.202-1.571.737-2.885s-1.55-2.154-2.423-1.875z"/><path fill="#fff" style="fill:var(--color1,#fff)" d="M11.191 17.743c.503-.161.732-.796.512-1.419s-.807-.997-1.31-.836c-.503.161-.732.796-.512 1.419s.807.997 1.311.836zm9.005-3.154c.503-.161.732-.796.512-1.419s-.807-.997-1.31-.836c-.503.161-.733.796-.512 1.419s.807.997 1.311.836z"/><path style="fill:var(--color2,#000)" d="M7.962 11.966c.221-.762.614-1.546 1.418-1.878.748-.308 1.588-.115 2.309.176.493.2.866-.511.37-.711-.959-.389-2.059-.604-3.047-.181-1.04.445-1.577 1.433-1.867 2.432-.143.494.674.652.817.162zm9.591-3.849a13.19 13.19 0 0 0 6.191-.814c.493-.193.23-.949-.267-.754a12.316 12.316 0 0 1-5.756.789c-.531-.058-.702.72-.168.778z"/><path fill="none" stroke="#000" style="stroke:var(--color2,#000)" stroke-miterlimit="10" stroke-width=".585" d="M20.568 26.874c-6.805 2.173-13.432.795-14.802-3.078m24.644-7.87c1.37 3.873-3.037 8.774-9.842 10.947M4.427 24.572l2.589-1.803m22.273-6.694 2.197-.423"/></symbol><symbol id="icon-smile-pink" viewBox="0 0 34 32"><path fill="#fff" style="fill:var(--color1,#fff)" d="M12.371 16.267c1.17.781 3.208-.06 4.552-1.878s1.485-3.925.315-4.706c-1.17-.781-3.208.06-4.552 1.878s-1.485 3.925-.315 4.706z"/><path style="fill:var(--color2,#000)" d="M17.128 9.83c1.064.71.899 2.75-.361 4.455s-3.223 2.545-4.288 1.834c-1.065-.71-.899-2.75.361-4.455s3.224-2.544 4.288-1.834zm.218-.294c-1.256-.838-3.412.023-4.816 1.922s-1.524 4.119-.269 4.957c1.256.838 3.412-.022 4.816-1.922s1.525-4.118.269-4.957z"/><path fill="#fff" style="fill:var(--color1,#fff)" d="M19.507 21.027c1.17.781 3.208-.06 4.552-1.878s1.485-3.925.315-4.706c-1.17-.781-3.208.06-4.552 1.878s-1.485 3.925-.315 4.706z"/><path style="fill:var(--color2,#000)" d="M24.264 14.59c1.064.711.899 2.75-.361 4.455s-3.223 2.545-4.288 1.834c-1.064-.711-.899-2.75.361-4.455s3.224-2.544 4.288-1.834zm.218-.295c-1.256-.838-3.412.023-4.816 1.922s-1.524 4.119-.269 4.957c1.256.838 3.412-.023 4.816-1.922s1.525-4.118.269-4.957zm-9.737-.405c.656.438 1.79-.021 2.532-1.025s.812-2.173.155-2.611c-.656-.438-1.79.021-2.532 1.025s-.812 2.173-.155 2.611z"/><path style="fill:var(--color2,#000)" d="M17.396 10.303c.627.419.551 1.552-.171 2.528s-1.817 1.429-2.444 1.01c-.627-.419-.551-1.552.171-2.528s1.818-1.428 2.444-1.01zm.073-.098c-.685-.457-1.858.009-2.62 1.04s-.825 2.238-.14 2.695 1.858-.009 2.62-1.04c.762-1.031.825-2.238.14-2.695zm4.515 8.513c.656.438 1.79-.021 2.532-1.025s.812-2.173.155-2.611c-.656-.438-1.79.021-2.532 1.025s-.812 2.173-.155 2.611z"/><path style="fill:var(--color2,#000)" d="M24.636 15.131c.627.419.551 1.552-.171 2.528s-1.817 1.429-2.444 1.01c-.627-.419-.551-1.552.171-2.528s1.818-1.428 2.444-1.01zm.072-.098c-.685-.457-1.858.009-2.62 1.04s-.825 2.238-.14 2.695c.685.457 1.858-.009 2.62-1.04s.825-2.238.14-2.695z"/><path fill="#fff" style="fill:var(--color1,#fff)" d="M14.393 13.435c.307.205.784.063 1.065-.317s.259-.854-.047-1.059c-.307-.205-.784-.063-1.065.317s-.26.854.047 1.059zm7.27 4.996c.307.205.784.063 1.065-.317s.259-.854-.048-1.059c-.307-.205-.784-.063-1.065.317s-.259.854.048 1.059z"/><path style="fill:var(--color2,#000)" d="M16.195 6.89c1.447.049 2.734.706 3.587 1.816.288.375.873-.086.587-.459-.964-1.256-2.473-2.019-4.109-2.075-.487-.016-.555.703-.065.718zm8.412 4.877c1.364.467 2.371 1.472 2.828 2.774.155.44.843.135.69-.301-.519-1.478-1.723-2.627-3.262-3.153-.459-.156-.717.522-.256.68z"/><path fill="none" stroke="#000" style="stroke:var(--color2,#000)" stroke-miterlimit="10" stroke-width=".434" d="M12.482 23.015c-5.341-3.562-7.85-8.913-5.605-11.953m19.34 12.899c-2.245 3.04-8.394 2.616-13.735-.946M5.558 10.549l2.783.83m17.158 11.883 1.509 1.3"/><path style="fill:var(--color2,#000);stroke:var(--color2,#000)" stroke="#000" stroke-miterlimit="10" stroke-width=".434" d="M12.648 23.408c.463-.352.343-1.225-.267-1.95s-1.481-1.026-1.944-.674-.343 1.225.267 1.95c.611.725 1.481 1.026 1.944.674z"/><path style="fill:var(--color2,#000);stroke:var(--color2,#000)" stroke="#000" stroke-miterlimit="10" stroke-width=".434" d="M12.145 23.89c.942.629 1.788 1.028 1.888.893s-.583-.755-1.525-1.384c-.942-.629-1.788-1.028-1.888-.893s.583.755 1.525 1.384z"/><path style="fill:var(--color2,#000);stroke:var(--color2,#000)" stroke="#000" stroke-miterlimit="10" stroke-width=".434" d="M13.684 24.747c.889.384 1.809.279 2.055-.234s-.277-1.24-1.166-1.624-1.809-.279-2.055.234c-.245.513.277 1.24 1.166 1.624z"/></symbol><symbol id="icon-telegram" viewBox="0 0 33 32"><path fill="#fff" style="fill:var(--color1,#fff)" d="m13.102 18.375-.317 4.17c.454 0 .65-.183.887-.401l2.13-1.9 4.415 3.017c.81.42 1.38.199 1.598-.695l2.898-12.673c.258-1.118-.432-1.554-1.22-1.28L6.46 14.699c-1.163.42-1.145 1.026-.198 1.3l4.355 1.264 10.114-5.907c.476-.294.91-.131.553.163l-8.182 6.856z"/></symbol><symbol id="icon-arrow" viewBox="0 0 82 32"><path d="M81.414 17.414c.362-.362.586-.862.586-1.414s-.224-1.052-.586-1.414L68.686 1.858a2 2 0 1 0-2.829 2.827l.001.001L77.172 16 65.858 27.314a2 2 0 0 0 2.829 2.827l-.001.001 12.728-12.728zM0 18h80v-4H0v4z"/></symbol><symbol id="icon-bracket" viewBox="0 0 20 32"><path stroke-linejoin="round" stroke-linecap="round" stroke-width="5.818" d="m5.679 3.764 11.776 12.323-11.776 12.32"/></symbol><symbol id="icon-burger" viewBox="0 0 50 32"><path fill="none" stroke="#fff" style="stroke:var(--color1,#fff)" stroke-linecap="round" stroke-width="4.571" d="M2.286 2.286H48M2.286 16H48M2.286 29.714H48"/></symbol><symbol id="icon-ellipse" viewBox="0 0 32 32"><path fill="#d9d9d9" style="fill:var(--color3,#d9d9d9)" d="M32 16c0 8.837-7.163 16-16 16S0 24.837 0 16 7.163 0 16 0s16 7.163 16 16z"/></symbol><symbol id="icon-ep-close" viewBox="0 0 32 32"><path fill="#fff" style="fill:var(--color1,#fff)" d="M23.884 6.706 16 14.59 8.116 6.706a.996.996 0 0 0-1.672.736c0 .26.099.497.262.674l-.001-.001 7.88 7.884-7.882 7.882a.998.998 0 0 0 1.41 1.412l7.886-7.882 7.884 7.884a.996.996 0 0 0 1.672-.736.992.992 0 0 0-.262-.674l.001.001-7.884-7.884 7.884-7.886a.998.998 0 0 0-1.41-1.412v.002z"/></symbol><symbol id="icon-facebook" viewBox="0 0 33 32"><path fill="#fcfcfc" style="fill:var(--color4,#fcfcfc)" d="M20.916 15.981h-2.61V25.6h-3.955v-9.62h-1.88V12.6h1.88v-2.187c0-1.565.74-4.014 3.99-4.014l2.93.012v3.281h-2.126c-.348 0-.839.176-.839.922v1.99h2.956l-.346 3.376z"/></symbol><symbol id="icon-github" viewBox="0 0 32 32"><path fill="#fcfcfc" style="fill:var(--color4,#fcfcfc)" d="M16 6.588c-5.17 0-9.412 4.242-9.412 9.412 0 4.411 3.095 8.418 7.206 9.412v-3.114a2.307 2.307 0 0 1-1.197-.03c-.556-.165-1.008-.535-1.344-1.1-.213-.361-.592-.752-.988-.723l-.097-1.1c.855-.072 1.595.522 2.034 1.26.195.327.42.52.707.605.279.082.578.042.926-.08.088-.698.407-.96.649-1.327-2.452-.366-3.429-1.667-3.816-2.693-.514-1.363-.239-3.066.67-4.142.018-.021.05-.076.037-.114-.416-1.259.091-2.3.11-2.41.48.142.559-.143 2.088.786l.265.159c.11.066.076.028.186.02a7.785 7.785 0 0 1 1.97-.279H16a7.986 7.986 0 0 1 2.058.299l-.056-.014.085.008c-.007 0 .024-.005.075-.036 1.911-1.157 1.842-.779 2.355-.945.018.11.52 1.168.107 2.41-.055.172 1.657 1.74.708 4.256-.388 1.027-1.365 2.328-3.816 2.693v.001c.314.479.691.734.69 1.722v3.887c4.11-.994 7.205-5 7.205-9.412 0-5.17-4.242-9.412-9.411-9.412z"/></symbol></defs></svg>