<svg width="32" height="32" fill="none" xmlns="http://www.w3.org/2000/svg"><path d="M16 6.588c-5.17 0-9.412 4.242-9.412 9.412 0 4.411 3.095 8.418 7.206 9.412v-3.114c-.408.089-.782.092-1.197-.03-.556-.165-1.008-.535-1.344-1.1-.213-.361-.592-.752-.988-.723l-.097-1.1c.855-.072 1.595.522 2.034 1.26.195.327.42.52.707.605.279.082.578.042.926-.08.088-.698.407-.96.649-1.327-2.452-.366-3.429-1.667-3.816-2.693-.514-1.363-.239-3.066.67-4.142.018-.021.05-.076.037-.114-.416-1.259.091-2.3.11-2.41.48.142.559-.143 2.088.786l.265.159c.11.066.076.028.186.02A7.985 7.985 0 0 1 16 11.13a8.022 8.022 0 0 1 2.002.285l.085.008c-.007 0 .024-.005.075-.036 1.911-1.157 1.842-.779 2.355-.945.018.11.52 1.168.107 2.41-.055.172 1.657 1.74.708 4.256-.388 1.027-1.365 2.328-3.816 2.693v.001c.314.479.691.734.69 1.722v3.887c4.11-.994 7.205-5 7.205-9.412 0-5.17-4.242-9.412-9.411-9.412Z" fill="#FCFCFC"/></svg>