<svg width="235" height="221" fill="none" xmlns="http://www.w3.org/2000/svg"><g clip-path="url(#a)"><path d="M85.434 112.346c8.08 5.393 22.155-.414 31.436-12.972 9.281-12.556 10.255-27.108 2.174-32.501-8.08-5.393-22.155.414-31.436 12.971-9.28 12.557-10.254 27.109-2.174 32.502Z" fill="#fff"/><path d="M118.292 67.891c7.351 4.906 6.211 18.994-2.492 30.77-8.704 11.775-22.262 17.574-29.613 12.667-7.352-4.906-6.212-18.993 2.492-30.769 8.703-11.776 22.268-17.57 29.613-12.668Zm1.505-2.036c-8.672-5.788-23.563.156-33.26 13.275-9.696 13.12-10.527 28.447-1.855 34.234 8.671 5.788 23.562-.155 33.259-13.275 9.697-13.119 10.534-28.442 1.856-34.234Z" fill="#000"/><path d="M134.718 145.216c8.08 5.393 22.155-.414 31.436-12.971 9.281-12.557 10.254-27.109 2.173-32.502-8.08-5.393-22.155.415-31.436 12.972-9.281 12.557-10.254 27.108-2.173 32.501Z" fill="#fff"/><path d="M167.575 100.761c7.351 4.907 6.212 18.994-2.492 30.77-8.703 11.775-22.262 17.574-29.613 12.668-7.351-4.907-6.212-18.994 2.492-30.77 8.703-11.775 22.269-17.57 29.613-12.668Zm1.505-2.036c-8.672-5.787-23.563.156-33.259 13.275-9.697 13.12-10.528 28.447-1.856 34.235 8.672 5.787 23.562-.156 33.259-13.275 9.697-13.12 10.535-28.442 1.856-34.235ZM101.832 95.927c4.533 3.025 12.363-.144 17.488-7.078 5.126-6.935 5.606-15.009 1.073-18.034-4.533-3.026-12.363.143-17.488 7.078-5.126 6.934-5.606 15.008-1.073 18.034Z" fill="#000"/><path d="M120.142 71.154c4.332 2.892 3.803 10.717-1.178 17.457-4.982 6.74-12.549 9.868-16.881 6.977-4.332-2.892-3.803-10.717 1.179-17.457 4.981-6.74 12.555-9.864 16.88-6.977Zm.502-.678c-4.732-3.159-12.834.06-18.096 7.179-5.262 7.12-5.698 15.453-.966 18.611 4.732 3.158 12.833-.06 18.095-7.179 5.263-7.12 5.699-15.453.967-18.612ZM151.829 129.273c4.533 3.025 12.363-.144 17.488-7.078 5.126-6.935 5.606-15.009 1.073-18.034-4.533-3.026-12.363.143-17.488 7.078-5.126 6.934-5.606 15.008-1.073 18.034Z" fill="#000"/><path d="M170.139 104.5c4.333 2.892 3.803 10.717-1.178 17.457-4.982 6.739-12.548 9.868-16.881 6.977-4.332-2.892-3.802-10.717 1.179-17.457 4.981-6.739 12.555-9.863 16.88-6.977Zm.502-.678c-4.732-3.159-12.834.059-18.096 7.179-5.262 7.12-5.698 15.453-.966 18.612 4.732 3.158 12.833-.06 18.095-7.18 5.263-7.119 5.699-15.453.967-18.611Z" fill="#000"/><path d="M99.402 92.784c2.121 1.416 5.413.436 7.352-2.188 1.94-2.624 1.792-5.898-.328-7.314-2.121-1.415-5.413-.436-7.352 2.188-1.94 2.624-1.793 5.899.328 7.314ZM149.613 127.286c2.121 1.416 5.412.436 7.352-2.188 1.939-2.624 1.792-5.899-.329-7.314-2.121-1.416-5.412-.436-7.352 2.188-1.939 2.624-1.792 5.898.329 7.314Z" fill="#fff"/><path d="M111.85 47.586c9.996.34 18.885 4.874 24.772 12.543 1.989 2.587 6.028-.595 4.053-3.173-6.66-8.672-17.081-13.946-28.377-14.33-3.361-.113-3.834 4.852-.448 4.96ZM169.942 81.265c9.42 3.225 16.378 10.166 19.53 19.155 1.069 3.039 5.824.935 4.766-2.076-3.581-10.21-11.899-18.14-22.528-21.776-3.168-1.08-4.95 3.608-1.768 4.697Z" fill="#000"/><path d="M86.206 158.949c-36.883-24.6-54.214-61.557-38.708-82.55M181.062 165.482c-15.506 20.993-57.972 18.067-94.856-6.533M38.387 72.856l19.223 5.73M176.1 160.653l10.425 8.979" stroke="#000" stroke-width="3" stroke-miterlimit="10"/><path d="M104.154 51.914c-.725 1.097-2.364 3.894-2.373 7.788a14.102 14.102 0 0 0 1.89 7.055M107.004 54.291c-.33.823-1.076 2.93-1.08 5.865-.004 2.56.558 4.455.854 5.31M111.44 57.624a7.708 7.708 0 0 0-.233 7.706M188.873 107.405a15.515 15.515 0 0 1-6.902 4.768 16.176 16.176 0 0 1-7.624.709M185.552 105.666c-.702.575-2.534 1.957-5.437 2.958-2.533.874-4.599 1.016-5.546 1.043M180.745 102.835c-.439.507-1.607 1.714-3.61 2.404a8.868 8.868 0 0 1-3.937.424" stroke="#000" stroke-width="2" stroke-miterlimit="10"/><path d="M87.352 161.661c3.198-2.434 2.371-8.463-1.847-13.468-4.217-5.005-10.228-7.089-13.426-4.656-3.198 2.433-2.37 8.463 1.847 13.468 4.218 5.005 10.229 7.089 13.426 4.656Z" fill="#000" stroke="#000" stroke-width="3" stroke-miterlimit="10"/><path d="M83.875 164.992c6.508 4.342 12.346 7.101 13.038 6.164.692-.937-4.023-5.216-10.532-9.557-6.508-4.341-12.346-7.101-13.038-6.164-.692.938 4.023 5.216 10.532 9.557Z" fill="#000" stroke="#000" stroke-width="3" stroke-miterlimit="10"/><path d="M94.504 170.91c6.143 2.652 12.496 1.928 14.191-1.616 1.694-3.544-1.912-8.566-8.055-11.218-6.143-2.652-12.496-1.928-14.19 1.616-1.694 3.544 1.912 8.566 8.054 11.218Z" fill="#000" stroke="#000" stroke-width="3" stroke-miterlimit="10"/></g><defs><clipPath id="a"><path fill="#fff" transform="matrix(.82117 .57069 -.5783 .81583 80.988 .155)" d="M0 0h186.726v139.407H0z"/></clipPath></defs></svg>